M48
; DRILL file {KiCad (6.0.6)} date Thu Jul 28 21:53:18 2022
; FORMAT={-:-/ absolute / metric / decimal}
; #@! TF.CreationDate,2022-07-28T21:53:18+09:00
; #@! TF.GenerationSoftware,Kicad,Pcbnew,(6.0.6)
; #@! TF.FileFunction,MixedPlating,1,2
FMAT,2
METRIC
; #@! TA.AperFunction,Plated,PTH,ViaDrill
T1C0.300
; #@! TA.AperFunction,Plated,PTH,ComponentDrill
T2C0.600
; #@! TA.AperFunction,Plated,PTH,ComponentDrill
T3C0.700
; #@! TA.AperFunction,Plated,PTH,ComponentDrill
T4C0.800
; #@! TA.AperFunction,NonPlated,NPTH,ComponentDrill
T5C3.200
%
G90
G05
T1
X4.445Y40.005
X4.445Y24.765
X6.35Y50.8
X8.89Y55.88
X9.822Y63.5
X12.7Y5.715
X23.495Y67.945
X26.02Y61.61
X27.305Y60.96
X28.575Y59.69
X29.21Y5.715
X29.445Y39.194
X29.657Y33.005
X30.012Y36.362
X30.48Y60.96
X33.02Y59.69
X33.657Y33.056
X37.465Y48.26
X43.18Y5.715
X43.815Y67.945
X60.96Y5.08
X63.5Y67.945
X66.04Y44.45
X66.04Y31.75
T2
X17.78Y48.26
X17.78Y47.01
X17.78Y41.89
X17.78Y40.64
X17.78Y34.27
X17.78Y33.02
X17.78Y26.65
X17.78Y25.4
X57.15Y57.15
X57.15Y55.9
X57.15Y50.8
X57.15Y49.55
X57.15Y44.45
X57.15Y43.2
X57.15Y38.1
X57.15Y36.85
X57.15Y31.75
X57.15Y30.5
X57.15Y25.4
X57.15Y24.15
X57.15Y19.05
X57.15Y17.8
X57.15Y12.7
X57.15Y11.45
T3
X44.45Y57.15
X44.45Y50.8
X44.45Y44.45
X44.45Y38.1
X44.45Y31.75
X44.45Y25.4
X44.45Y19.05
X44.45Y12.7
X52.07Y57.15
X52.07Y50.8
X52.07Y44.45
X52.07Y38.1
X52.07Y31.75
X52.07Y25.4
X52.07Y19.05
X52.07Y12.7
T4
X27.95Y50.8
X27.95Y48.26
X27.95Y45.72
X27.95Y43.18
X27.95Y40.64
X27.95Y38.1
X27.95Y35.56
X27.95Y33.02
X27.95Y30.48
X27.95Y27.94
X30.5Y57.15
X33.0Y57.15
X35.57Y50.8
X35.57Y48.26
X35.57Y45.72
X35.57Y43.18
X35.57Y40.64
X35.57Y38.1
X35.57Y35.56
X35.57Y33.02
X35.57Y30.48
X35.57Y27.94
T5
X5.0Y10.0
T0
M30
