G04 #@! TF.GenerationSoftware,KiCad,Pcbnew,(6.0.6)*
G04 #@! TF.CreationDate,2022-07-28T21:52:44+09:00*
G04 #@! TF.ProjectId,TargetSite,54617267-6574-4536-9974-652e6b696361,rev?*
G04 #@! TF.SameCoordinates,PX7bfa480PY7bfa480*
G04 #@! TF.FileFunction,Soldermask,Bot*
G04 #@! TF.FilePolarity,Negative*
%FSLAX46Y46*%
G04 Gerber Fmt 4.6, Leading zero omitted, Abs format (unit mm)*
G04 Created by KiCad (PCBNEW (6.0.6)) date 2022-07-28 21:52:44*
%MOMM*%
%LPD*%
G01*
G04 APERTURE LIST*
G04 Aperture macros list*
%AMRoundRect*
0 Rectangle with rounded corners*
0 $1 Rounding radius*
0 $2 $3 $4 $5 $6 $7 $8 $9 X,Y pos of 4 corners*
0 Add a 4 corners polygon primitive as box body*
4,1,4,$2,$3,$4,$5,$6,$7,$8,$9,$2,$3,0*
0 Add four circle primitives for the rounded corners*
1,1,$1+$1,$2,$3*
1,1,$1+$1,$4,$5*
1,1,$1+$1,$6,$7*
1,1,$1+$1,$8,$9*
0 Add four rect primitives between the rounded corners*
20,1,$1+$1,$2,$3,$4,$5,0*
20,1,$1+$1,$4,$5,$6,$7,0*
20,1,$1+$1,$6,$7,$8,$9,0*
20,1,$1+$1,$8,$9,$2,$3,0*%
G04 Aperture macros list end*
%ADD10RoundRect,0.225000X-0.475000X0.225000X-0.475000X-0.225000X0.475000X-0.225000X0.475000X0.225000X0*%
%ADD11O,1.400000X0.900000*%
%ADD12C,1.400000*%
%ADD13O,1.400000X1.400000*%
%ADD14RoundRect,0.225000X0.475000X-0.225000X0.475000X0.225000X-0.475000X0.225000X-0.475000X-0.225000X0*%
%ADD15R,1.600000X1.600000*%
%ADD16O,1.600000X1.600000*%
%ADD17C,3.200000*%
%ADD18C,1.600000*%
%ADD19C,0.605000*%
G04 APERTURE END LIST*
D10*
X57150000Y38100000D03*
D11*
X57150000Y36850000D03*
D12*
X44450000Y12700000D03*
D13*
X52070000Y12700000D03*
D12*
X44450000Y38100000D03*
D13*
X52070000Y38100000D03*
D14*
X17780000Y33020000D03*
D11*
X17780000Y34270000D03*
D15*
X27950000Y50800000D03*
D16*
X27950000Y48260000D03*
X27950000Y45720000D03*
X27950000Y43180000D03*
X27950000Y40640000D03*
X27950000Y38100000D03*
X27950000Y35560000D03*
X27950000Y33020000D03*
X27950000Y30480000D03*
X27950000Y27940000D03*
X35570000Y27940000D03*
X35570000Y30480000D03*
X35570000Y33020000D03*
X35570000Y35560000D03*
X35570000Y38100000D03*
X35570000Y40640000D03*
X35570000Y43180000D03*
X35570000Y45720000D03*
X35570000Y48260000D03*
X35570000Y50800000D03*
D10*
X57150000Y31750000D03*
D11*
X57150000Y30500000D03*
D14*
X17780000Y47010000D03*
D11*
X17780000Y48260000D03*
D10*
X57150000Y19050000D03*
D11*
X57150000Y17800000D03*
D17*
X5000000Y10000000D03*
D10*
X57150000Y12700000D03*
D11*
X57150000Y11450000D03*
D10*
X57150000Y57150000D03*
D11*
X57150000Y55900000D03*
D10*
X57150000Y44450000D03*
D11*
X57150000Y43200000D03*
D10*
X57150000Y25400000D03*
D11*
X57150000Y24150000D03*
D10*
X57150000Y50800000D03*
D11*
X57150000Y49550000D03*
D14*
X17780000Y25400000D03*
D11*
X17780000Y26650000D03*
D12*
X44450000Y44450000D03*
D13*
X52070000Y44450000D03*
D12*
X44450000Y19050000D03*
D13*
X52070000Y19050000D03*
D12*
X44450000Y50800000D03*
D13*
X52070000Y50800000D03*
D12*
X44450000Y31750000D03*
D13*
X52070000Y31750000D03*
D12*
X44450000Y57150000D03*
D13*
X52070000Y57150000D03*
D18*
X33000000Y57150000D03*
X30500000Y57150000D03*
D12*
X44450000Y25400000D03*
D13*
X52070000Y25400000D03*
D14*
X17780000Y40640000D03*
D11*
X17780000Y41890000D03*
D19*
X43815000Y67945000D03*
X66040000Y31750000D03*
X29210000Y5715000D03*
X23495000Y67945000D03*
X28575000Y59690000D03*
X8890000Y55880000D03*
X43180000Y5715000D03*
X60960000Y5080000D03*
X6350000Y50800000D03*
X33020000Y59690000D03*
X4445000Y24765000D03*
X63500000Y67945000D03*
X9822400Y63500000D03*
X4445000Y40005000D03*
X66040000Y44450000D03*
X12700000Y5715000D03*
X26020000Y61610000D03*
X37465000Y48260000D03*
X30480000Y60960000D03*
X27305000Y60960000D03*
X33657482Y33055768D03*
X30012072Y36362072D03*
X29444778Y39194137D03*
X29656721Y33005414D03*
M02*
