G04 #@! TF.GenerationSoftware,KiCad,Pcbnew,(6.0.6)*
G04 #@! TF.CreationDate,2022-07-28T21:52:44+09:00*
G04 #@! TF.ProjectId,TargetSite,54617267-6574-4536-9974-652e6b696361,rev?*
G04 #@! TF.SameCoordinates,PX7bfa480PY7bfa480*
G04 #@! TF.FileFunction,Legend,Top*
G04 #@! TF.FilePolarity,Positive*
%FSLAX46Y46*%
G04 Gerber Fmt 4.6, Leading zero omitted, Abs format (unit mm)*
G04 Created by KiCad (PCBNEW (6.0.6)) date 2022-07-28 21:52:44*
%MOMM*%
%LPD*%
G01*
G04 APERTURE LIST*
%ADD10C,0.150000*%
%ADD11C,0.120000*%
G04 APERTURE END LIST*
D10*
X61436666Y2405000D02*
X61341428Y2452620D01*
X61198571Y2452620D01*
X61055714Y2405000D01*
X60960476Y2309762D01*
X60912857Y2214524D01*
X60865238Y2024048D01*
X60865238Y1881191D01*
X60912857Y1690715D01*
X60960476Y1595477D01*
X61055714Y1500239D01*
X61198571Y1452620D01*
X61293809Y1452620D01*
X61436666Y1500239D01*
X61484285Y1547858D01*
X61484285Y1881191D01*
X61293809Y1881191D01*
X61770000Y2452620D02*
X62341428Y2452620D01*
X62055714Y1452620D02*
X62055714Y2452620D01*
X63055714Y1500239D02*
X62960476Y1452620D01*
X62770000Y1452620D01*
X62674761Y1500239D01*
X62627142Y1595477D01*
X62627142Y1976429D01*
X62674761Y2071667D01*
X62770000Y2119286D01*
X62960476Y2119286D01*
X63055714Y2071667D01*
X63103333Y1976429D01*
X63103333Y1881191D01*
X62627142Y1785953D01*
X63960476Y1500239D02*
X63865238Y1452620D01*
X63674761Y1452620D01*
X63579523Y1500239D01*
X63531904Y1547858D01*
X63484285Y1643096D01*
X63484285Y1928810D01*
X63531904Y2024048D01*
X63579523Y2071667D01*
X63674761Y2119286D01*
X63865238Y2119286D01*
X63960476Y2071667D01*
X64389047Y1452620D02*
X64389047Y2452620D01*
X64817619Y1452620D02*
X64817619Y1976429D01*
X64770000Y2071667D01*
X64674761Y2119286D01*
X64531904Y2119286D01*
X64436666Y2071667D01*
X64389047Y2024048D01*
X65341428Y1452620D02*
X65531904Y1452620D01*
X65627142Y1500239D01*
X65674761Y1547858D01*
X65770000Y1690715D01*
X65817619Y1881191D01*
X65817619Y2262143D01*
X65770000Y2357381D01*
X65722380Y2405000D01*
X65627142Y2452620D01*
X65436666Y2452620D01*
X65341428Y2405000D01*
X65293809Y2357381D01*
X65246190Y2262143D01*
X65246190Y2024048D01*
X65293809Y1928810D01*
X65341428Y1881191D01*
X65436666Y1833572D01*
X65627142Y1833572D01*
X65722380Y1881191D01*
X65770000Y1928810D01*
X65817619Y2024048D01*
X66293809Y1452620D02*
X66484285Y1452620D01*
X66579523Y1500239D01*
X66627142Y1547858D01*
X66722380Y1690715D01*
X66770000Y1881191D01*
X66770000Y2262143D01*
X66722380Y2357381D01*
X66674761Y2405000D01*
X66579523Y2452620D01*
X66389047Y2452620D01*
X66293809Y2405000D01*
X66246190Y2357381D01*
X66198571Y2262143D01*
X66198571Y2024048D01*
X66246190Y1928810D01*
X66293809Y1881191D01*
X66389047Y1833572D01*
X66579523Y1833572D01*
X66674761Y1881191D01*
X66722380Y1928810D01*
X66770000Y2024048D01*
X67103333Y2452620D02*
X67770000Y2452620D01*
X67341428Y1452620D01*
X68674761Y1452620D02*
X68103333Y1452620D01*
X68389047Y1452620D02*
X68389047Y2452620D01*
X68293809Y2309762D01*
X68198571Y2214524D01*
X68103333Y2166905D01*
X58285714Y4357620D02*
X58857142Y4357620D01*
X58571428Y3357620D02*
X58571428Y4357620D01*
X59619047Y3357620D02*
X59619047Y3881429D01*
X59571428Y3976667D01*
X59476190Y4024286D01*
X59285714Y4024286D01*
X59190476Y3976667D01*
X59619047Y3405239D02*
X59523809Y3357620D01*
X59285714Y3357620D01*
X59190476Y3405239D01*
X59142857Y3500477D01*
X59142857Y3595715D01*
X59190476Y3690953D01*
X59285714Y3738572D01*
X59523809Y3738572D01*
X59619047Y3786191D01*
X60095238Y3357620D02*
X60095238Y4024286D01*
X60095238Y3833810D02*
X60142857Y3929048D01*
X60190476Y3976667D01*
X60285714Y4024286D01*
X60380952Y4024286D01*
X61142857Y4024286D02*
X61142857Y3214762D01*
X61095238Y3119524D01*
X61047619Y3071905D01*
X60952380Y3024286D01*
X60809523Y3024286D01*
X60714285Y3071905D01*
X61142857Y3405239D02*
X61047619Y3357620D01*
X60857142Y3357620D01*
X60761904Y3405239D01*
X60714285Y3452858D01*
X60666666Y3548096D01*
X60666666Y3833810D01*
X60714285Y3929048D01*
X60761904Y3976667D01*
X60857142Y4024286D01*
X61047619Y4024286D01*
X61142857Y3976667D01*
X62000000Y3405239D02*
X61904761Y3357620D01*
X61714285Y3357620D01*
X61619047Y3405239D01*
X61571428Y3500477D01*
X61571428Y3881429D01*
X61619047Y3976667D01*
X61714285Y4024286D01*
X61904761Y4024286D01*
X62000000Y3976667D01*
X62047619Y3881429D01*
X62047619Y3786191D01*
X61571428Y3690953D01*
X62333333Y4024286D02*
X62714285Y4024286D01*
X62476190Y4357620D02*
X62476190Y3500477D01*
X62523809Y3405239D01*
X62619047Y3357620D01*
X62714285Y3357620D01*
X63000000Y3405239D02*
X63142857Y3357620D01*
X63380952Y3357620D01*
X63476190Y3405239D01*
X63523809Y3452858D01*
X63571428Y3548096D01*
X63571428Y3643334D01*
X63523809Y3738572D01*
X63476190Y3786191D01*
X63380952Y3833810D01*
X63190476Y3881429D01*
X63095238Y3929048D01*
X63047619Y3976667D01*
X63000000Y4071905D01*
X63000000Y4167143D01*
X63047619Y4262381D01*
X63095238Y4310000D01*
X63190476Y4357620D01*
X63428571Y4357620D01*
X63571428Y4310000D01*
X64000000Y3357620D02*
X64000000Y4024286D01*
X64000000Y4357620D02*
X63952380Y4310000D01*
X64000000Y4262381D01*
X64047619Y4310000D01*
X64000000Y4357620D01*
X64000000Y4262381D01*
X64333333Y4024286D02*
X64714285Y4024286D01*
X64476190Y4357620D02*
X64476190Y3500477D01*
X64523809Y3405239D01*
X64619047Y3357620D01*
X64714285Y3357620D01*
X65428571Y3405239D02*
X65333333Y3357620D01*
X65142857Y3357620D01*
X65047619Y3405239D01*
X65000000Y3500477D01*
X65000000Y3881429D01*
X65047619Y3976667D01*
X65142857Y4024286D01*
X65333333Y4024286D01*
X65428571Y3976667D01*
X65476190Y3881429D01*
X65476190Y3786191D01*
X65000000Y3690953D01*
X67190476Y3357620D02*
X66619047Y3357620D01*
X66904761Y3357620D02*
X66904761Y4357620D01*
X66809523Y4214762D01*
X66714285Y4119524D01*
X66619047Y4071905D01*
X67619047Y3452858D02*
X67666666Y3405239D01*
X67619047Y3357620D01*
X67571428Y3405239D01*
X67619047Y3452858D01*
X67619047Y3357620D01*
X68285714Y4357620D02*
X68380952Y4357620D01*
X68476190Y4310000D01*
X68523809Y4262381D01*
X68571428Y4167143D01*
X68619047Y3976667D01*
X68619047Y3738572D01*
X68571428Y3548096D01*
X68523809Y3452858D01*
X68476190Y3405239D01*
X68380952Y3357620D01*
X68285714Y3357620D01*
X68190476Y3405239D01*
X68142857Y3452858D01*
X68095238Y3548096D01*
X68047619Y3738572D01*
X68047619Y3976667D01*
X68095238Y4167143D01*
X68142857Y4262381D01*
X68190476Y4310000D01*
X68285714Y4357620D01*
X60002380Y37146667D02*
X60716666Y37146667D01*
X60859523Y37099048D01*
X60954761Y37003810D01*
X61002380Y36860953D01*
X61002380Y36765715D01*
X61002380Y37670477D02*
X61002380Y37860953D01*
X60954761Y37956191D01*
X60907142Y38003810D01*
X60764285Y38099048D01*
X60573809Y38146667D01*
X60192857Y38146667D01*
X60097619Y38099048D01*
X60050000Y38051429D01*
X60002380Y37956191D01*
X60002380Y37765715D01*
X60050000Y37670477D01*
X60097619Y37622858D01*
X60192857Y37575239D01*
X60430952Y37575239D01*
X60526190Y37622858D01*
X60573809Y37670477D01*
X60621428Y37765715D01*
X60621428Y37956191D01*
X60573809Y38051429D01*
X60526190Y38099048D01*
X60430952Y38146667D01*
X48093333Y14167620D02*
X47760000Y14643810D01*
X47521904Y14167620D02*
X47521904Y15167620D01*
X47902857Y15167620D01*
X47998095Y15120000D01*
X48045714Y15072381D01*
X48093333Y14977143D01*
X48093333Y14834286D01*
X48045714Y14739048D01*
X47998095Y14691429D01*
X47902857Y14643810D01*
X47521904Y14643810D01*
X48664761Y14739048D02*
X48569523Y14786667D01*
X48521904Y14834286D01*
X48474285Y14929524D01*
X48474285Y14977143D01*
X48521904Y15072381D01*
X48569523Y15120000D01*
X48664761Y15167620D01*
X48855238Y15167620D01*
X48950476Y15120000D01*
X48998095Y15072381D01*
X49045714Y14977143D01*
X49045714Y14929524D01*
X48998095Y14834286D01*
X48950476Y14786667D01*
X48855238Y14739048D01*
X48664761Y14739048D01*
X48569523Y14691429D01*
X48521904Y14643810D01*
X48474285Y14548572D01*
X48474285Y14358096D01*
X48521904Y14262858D01*
X48569523Y14215239D01*
X48664761Y14167620D01*
X48855238Y14167620D01*
X48950476Y14215239D01*
X48998095Y14262858D01*
X49045714Y14358096D01*
X49045714Y14548572D01*
X48998095Y14643810D01*
X48950476Y14691429D01*
X48855238Y14739048D01*
X48093333Y39567620D02*
X47760000Y40043810D01*
X47521904Y39567620D02*
X47521904Y40567620D01*
X47902857Y40567620D01*
X47998095Y40520000D01*
X48045714Y40472381D01*
X48093333Y40377143D01*
X48093333Y40234286D01*
X48045714Y40139048D01*
X47998095Y40091429D01*
X47902857Y40043810D01*
X47521904Y40043810D01*
X48950476Y40234286D02*
X48950476Y39567620D01*
X48712380Y40615239D02*
X48474285Y39900953D01*
X49093333Y39900953D01*
X13832380Y33306667D02*
X14546666Y33306667D01*
X14689523Y33259048D01*
X14784761Y33163810D01*
X14832380Y33020953D01*
X14832380Y32925715D01*
X13927619Y33735239D02*
X13880000Y33782858D01*
X13832380Y33878096D01*
X13832380Y34116191D01*
X13880000Y34211429D01*
X13927619Y34259048D01*
X14022857Y34306667D01*
X14118095Y34306667D01*
X14260952Y34259048D01*
X14832380Y33687620D01*
X14832380Y34306667D01*
X30998095Y53677620D02*
X30998095Y52868096D01*
X31045714Y52772858D01*
X31093333Y52725239D01*
X31188571Y52677620D01*
X31379047Y52677620D01*
X31474285Y52725239D01*
X31521904Y52772858D01*
X31569523Y52868096D01*
X31569523Y53677620D01*
X32569523Y52677620D02*
X31998095Y52677620D01*
X32283809Y52677620D02*
X32283809Y53677620D01*
X32188571Y53534762D01*
X32093333Y53439524D01*
X31998095Y53391905D01*
X60002380Y30320477D02*
X60716666Y30320477D01*
X60859523Y30272858D01*
X60954761Y30177620D01*
X61002380Y30034762D01*
X61002380Y29939524D01*
X61002380Y31320477D02*
X61002380Y30749048D01*
X61002380Y31034762D02*
X60002380Y31034762D01*
X60145238Y30939524D01*
X60240476Y30844286D01*
X60288095Y30749048D01*
X60002380Y31939524D02*
X60002380Y32034762D01*
X60050000Y32130000D01*
X60097619Y32177620D01*
X60192857Y32225239D01*
X60383333Y32272858D01*
X60621428Y32272858D01*
X60811904Y32225239D01*
X60907142Y32177620D01*
X60954761Y32130000D01*
X61002380Y32034762D01*
X61002380Y31939524D01*
X60954761Y31844286D01*
X60907142Y31796667D01*
X60811904Y31749048D01*
X60621428Y31701429D01*
X60383333Y31701429D01*
X60192857Y31749048D01*
X60097619Y31796667D01*
X60050000Y31844286D01*
X60002380Y31939524D01*
X7832380Y60626667D02*
X8546666Y60626667D01*
X8689523Y60579048D01*
X8784761Y60483810D01*
X8832380Y60340953D01*
X8832380Y60245715D01*
X8832380Y61626667D02*
X8832380Y61055239D01*
X8832380Y61340953D02*
X7832380Y61340953D01*
X7975238Y61245715D01*
X8070476Y61150477D01*
X8118095Y61055239D01*
X13832380Y47296667D02*
X14546666Y47296667D01*
X14689523Y47249048D01*
X14784761Y47153810D01*
X14832380Y47010953D01*
X14832380Y46915715D01*
X14165714Y48201429D02*
X14832380Y48201429D01*
X13784761Y47963334D02*
X14499047Y47725239D01*
X14499047Y48344286D01*
X60002380Y17620477D02*
X60716666Y17620477D01*
X60859523Y17572858D01*
X60954761Y17477620D01*
X61002380Y17334762D01*
X61002380Y17239524D01*
X61002380Y18620477D02*
X61002380Y18049048D01*
X61002380Y18334762D02*
X60002380Y18334762D01*
X60145238Y18239524D01*
X60240476Y18144286D01*
X60288095Y18049048D01*
X60097619Y19001429D02*
X60050000Y19049048D01*
X60002380Y19144286D01*
X60002380Y19382381D01*
X60050000Y19477620D01*
X60097619Y19525239D01*
X60192857Y19572858D01*
X60288095Y19572858D01*
X60430952Y19525239D01*
X61002380Y18953810D01*
X61002380Y19572858D01*
X60002380Y11270477D02*
X60716666Y11270477D01*
X60859523Y11222858D01*
X60954761Y11127620D01*
X61002380Y10984762D01*
X61002380Y10889524D01*
X61002380Y12270477D02*
X61002380Y11699048D01*
X61002380Y11984762D02*
X60002380Y11984762D01*
X60145238Y11889524D01*
X60240476Y11794286D01*
X60288095Y11699048D01*
X60002380Y12603810D02*
X60002380Y13222858D01*
X60383333Y12889524D01*
X60383333Y13032381D01*
X60430952Y13127620D01*
X60478571Y13175239D01*
X60573809Y13222858D01*
X60811904Y13222858D01*
X60907142Y13175239D01*
X60954761Y13127620D01*
X61002380Y13032381D01*
X61002380Y12746667D01*
X60954761Y12651429D01*
X60907142Y12603810D01*
X60002380Y56196667D02*
X60716666Y56196667D01*
X60859523Y56149048D01*
X60954761Y56053810D01*
X61002380Y55910953D01*
X61002380Y55815715D01*
X60002380Y57101429D02*
X60002380Y56910953D01*
X60050000Y56815715D01*
X60097619Y56768096D01*
X60240476Y56672858D01*
X60430952Y56625239D01*
X60811904Y56625239D01*
X60907142Y56672858D01*
X60954761Y56720477D01*
X61002380Y56815715D01*
X61002380Y57006191D01*
X60954761Y57101429D01*
X60907142Y57149048D01*
X60811904Y57196667D01*
X60573809Y57196667D01*
X60478571Y57149048D01*
X60430952Y57101429D01*
X60383333Y57006191D01*
X60383333Y56815715D01*
X60430952Y56720477D01*
X60478571Y56672858D01*
X60573809Y56625239D01*
X60002380Y43496667D02*
X60716666Y43496667D01*
X60859523Y43449048D01*
X60954761Y43353810D01*
X61002380Y43210953D01*
X61002380Y43115715D01*
X60430952Y44115715D02*
X60383333Y44020477D01*
X60335714Y43972858D01*
X60240476Y43925239D01*
X60192857Y43925239D01*
X60097619Y43972858D01*
X60050000Y44020477D01*
X60002380Y44115715D01*
X60002380Y44306191D01*
X60050000Y44401429D01*
X60097619Y44449048D01*
X60192857Y44496667D01*
X60240476Y44496667D01*
X60335714Y44449048D01*
X60383333Y44401429D01*
X60430952Y44306191D01*
X60430952Y44115715D01*
X60478571Y44020477D01*
X60526190Y43972858D01*
X60621428Y43925239D01*
X60811904Y43925239D01*
X60907142Y43972858D01*
X60954761Y44020477D01*
X61002380Y44115715D01*
X61002380Y44306191D01*
X60954761Y44401429D01*
X60907142Y44449048D01*
X60811904Y44496667D01*
X60621428Y44496667D01*
X60526190Y44449048D01*
X60478571Y44401429D01*
X60430952Y44306191D01*
X60002380Y23970477D02*
X60716666Y23970477D01*
X60859523Y23922858D01*
X60954761Y23827620D01*
X61002380Y23684762D01*
X61002380Y23589524D01*
X61002380Y24970477D02*
X61002380Y24399048D01*
X61002380Y24684762D02*
X60002380Y24684762D01*
X60145238Y24589524D01*
X60240476Y24494286D01*
X60288095Y24399048D01*
X61002380Y25922858D02*
X61002380Y25351429D01*
X61002380Y25637143D02*
X60002380Y25637143D01*
X60145238Y25541905D01*
X60240476Y25446667D01*
X60288095Y25351429D01*
X60002380Y49846667D02*
X60716666Y49846667D01*
X60859523Y49799048D01*
X60954761Y49703810D01*
X61002380Y49560953D01*
X61002380Y49465715D01*
X60002380Y50227620D02*
X60002380Y50894286D01*
X61002380Y50465715D01*
X13832380Y25686667D02*
X14546666Y25686667D01*
X14689523Y25639048D01*
X14784761Y25543810D01*
X14832380Y25400953D01*
X14832380Y25305715D01*
X13832380Y26639048D02*
X13832380Y26162858D01*
X14308571Y26115239D01*
X14260952Y26162858D01*
X14213333Y26258096D01*
X14213333Y26496191D01*
X14260952Y26591429D01*
X14308571Y26639048D01*
X14403809Y26686667D01*
X14641904Y26686667D01*
X14737142Y26639048D01*
X14784761Y26591429D01*
X14832380Y26496191D01*
X14832380Y26258096D01*
X14784761Y26162858D01*
X14737142Y26115239D01*
X48093333Y45917620D02*
X47760000Y46393810D01*
X47521904Y45917620D02*
X47521904Y46917620D01*
X47902857Y46917620D01*
X47998095Y46870000D01*
X48045714Y46822381D01*
X48093333Y46727143D01*
X48093333Y46584286D01*
X48045714Y46489048D01*
X47998095Y46441429D01*
X47902857Y46393810D01*
X47521904Y46393810D01*
X48426666Y46917620D02*
X49045714Y46917620D01*
X48712380Y46536667D01*
X48855238Y46536667D01*
X48950476Y46489048D01*
X48998095Y46441429D01*
X49045714Y46346191D01*
X49045714Y46108096D01*
X48998095Y46012858D01*
X48950476Y45965239D01*
X48855238Y45917620D01*
X48569523Y45917620D01*
X48474285Y45965239D01*
X48426666Y46012858D01*
X48093333Y20517620D02*
X47760000Y20993810D01*
X47521904Y20517620D02*
X47521904Y21517620D01*
X47902857Y21517620D01*
X47998095Y21470000D01*
X48045714Y21422381D01*
X48093333Y21327143D01*
X48093333Y21184286D01*
X48045714Y21089048D01*
X47998095Y21041429D01*
X47902857Y20993810D01*
X47521904Y20993810D01*
X48426666Y21517620D02*
X49093333Y21517620D01*
X48664761Y20517620D01*
X48093333Y52267620D02*
X47760000Y52743810D01*
X47521904Y52267620D02*
X47521904Y53267620D01*
X47902857Y53267620D01*
X47998095Y53220000D01*
X48045714Y53172381D01*
X48093333Y53077143D01*
X48093333Y52934286D01*
X48045714Y52839048D01*
X47998095Y52791429D01*
X47902857Y52743810D01*
X47521904Y52743810D01*
X48474285Y53172381D02*
X48521904Y53220000D01*
X48617142Y53267620D01*
X48855238Y53267620D01*
X48950476Y53220000D01*
X48998095Y53172381D01*
X49045714Y53077143D01*
X49045714Y52981905D01*
X48998095Y52839048D01*
X48426666Y52267620D01*
X49045714Y52267620D01*
X48093333Y33217620D02*
X47760000Y33693810D01*
X47521904Y33217620D02*
X47521904Y34217620D01*
X47902857Y34217620D01*
X47998095Y34170000D01*
X48045714Y34122381D01*
X48093333Y34027143D01*
X48093333Y33884286D01*
X48045714Y33789048D01*
X47998095Y33741429D01*
X47902857Y33693810D01*
X47521904Y33693810D01*
X48998095Y34217620D02*
X48521904Y34217620D01*
X48474285Y33741429D01*
X48521904Y33789048D01*
X48617142Y33836667D01*
X48855238Y33836667D01*
X48950476Y33789048D01*
X48998095Y33741429D01*
X49045714Y33646191D01*
X49045714Y33408096D01*
X48998095Y33312858D01*
X48950476Y33265239D01*
X48855238Y33217620D01*
X48617142Y33217620D01*
X48521904Y33265239D01*
X48474285Y33312858D01*
X48093333Y58617620D02*
X47760000Y59093810D01*
X47521904Y58617620D02*
X47521904Y59617620D01*
X47902857Y59617620D01*
X47998095Y59570000D01*
X48045714Y59522381D01*
X48093333Y59427143D01*
X48093333Y59284286D01*
X48045714Y59189048D01*
X47998095Y59141429D01*
X47902857Y59093810D01*
X47521904Y59093810D01*
X49045714Y58617620D02*
X48474285Y58617620D01*
X48760000Y58617620D02*
X48760000Y59617620D01*
X48664761Y59474762D01*
X48569523Y59379524D01*
X48474285Y59331905D01*
X31583333Y54742858D02*
X31535714Y54695239D01*
X31392857Y54647620D01*
X31297619Y54647620D01*
X31154761Y54695239D01*
X31059523Y54790477D01*
X31011904Y54885715D01*
X30964285Y55076191D01*
X30964285Y55219048D01*
X31011904Y55409524D01*
X31059523Y55504762D01*
X31154761Y55600000D01*
X31297619Y55647620D01*
X31392857Y55647620D01*
X31535714Y55600000D01*
X31583333Y55552381D01*
X32535714Y54647620D02*
X31964285Y54647620D01*
X32250000Y54647620D02*
X32250000Y55647620D01*
X32154761Y55504762D01*
X32059523Y55409524D01*
X31964285Y55361905D01*
X48093333Y26867620D02*
X47760000Y27343810D01*
X47521904Y26867620D02*
X47521904Y27867620D01*
X47902857Y27867620D01*
X47998095Y27820000D01*
X48045714Y27772381D01*
X48093333Y27677143D01*
X48093333Y27534286D01*
X48045714Y27439048D01*
X47998095Y27391429D01*
X47902857Y27343810D01*
X47521904Y27343810D01*
X48950476Y27867620D02*
X48760000Y27867620D01*
X48664761Y27820000D01*
X48617142Y27772381D01*
X48521904Y27629524D01*
X48474285Y27439048D01*
X48474285Y27058096D01*
X48521904Y26962858D01*
X48569523Y26915239D01*
X48664761Y26867620D01*
X48855238Y26867620D01*
X48950476Y26915239D01*
X48998095Y26962858D01*
X49045714Y27058096D01*
X49045714Y27296191D01*
X48998095Y27391429D01*
X48950476Y27439048D01*
X48855238Y27486667D01*
X48664761Y27486667D01*
X48569523Y27439048D01*
X48521904Y27391429D01*
X48474285Y27296191D01*
X13832380Y40926667D02*
X14546666Y40926667D01*
X14689523Y40879048D01*
X14784761Y40783810D01*
X14832380Y40640953D01*
X14832380Y40545715D01*
X13832380Y41307620D02*
X13832380Y41926667D01*
X14213333Y41593334D01*
X14213333Y41736191D01*
X14260952Y41831429D01*
X14308571Y41879048D01*
X14403809Y41926667D01*
X14641904Y41926667D01*
X14737142Y41879048D01*
X14784761Y41831429D01*
X14832380Y41736191D01*
X14832380Y41450477D01*
X14784761Y41355239D01*
X14737142Y41307620D01*
D11*
X59000000Y39050000D02*
X59000000Y37850000D01*
X59000000Y39350000D02*
X59000000Y39050000D01*
X57150000Y39650000D02*
X57150000Y39350000D01*
X56150000Y39350000D02*
X56150000Y35600000D01*
X55540000Y39960000D02*
X55540000Y38050000D01*
X59300000Y37100000D02*
X59000000Y37100000D01*
X59450000Y35300000D02*
X59450000Y39650000D01*
X59000000Y39050000D02*
X59450000Y39050000D01*
X59000000Y37100000D02*
X59000000Y35900000D01*
X59300000Y37850000D02*
X59300000Y37100000D01*
X57450000Y39960000D02*
X55540000Y39960000D01*
X57900000Y35300000D02*
X57900000Y35600000D01*
X59000000Y35900000D02*
X59450000Y35900000D01*
X55850000Y35300000D02*
X59450000Y35300000D01*
X57900000Y39650000D02*
X57900000Y39350000D01*
X57150000Y35600000D02*
X57150000Y35300000D01*
X59000000Y35600000D02*
X59000000Y35900000D01*
X57900000Y35600000D02*
X59000000Y35600000D01*
X56150000Y35600000D02*
X57150000Y35600000D01*
X55850000Y39650000D02*
X55850000Y35300000D01*
X59000000Y37850000D02*
X59300000Y37850000D01*
X59450000Y39650000D02*
X55850000Y39650000D01*
X57150000Y39350000D02*
X56150000Y39350000D01*
X57900000Y39350000D02*
X59000000Y39350000D01*
X46340000Y13620000D02*
X46340000Y11780000D01*
X51130000Y12700000D02*
X50180000Y12700000D01*
X45390000Y12700000D02*
X46340000Y12700000D01*
X50180000Y13620000D02*
X46340000Y13620000D01*
X50180000Y11780000D02*
X50180000Y13620000D01*
X46340000Y11780000D02*
X50180000Y11780000D01*
X46340000Y37180000D02*
X50180000Y37180000D01*
X45390000Y38100000D02*
X46340000Y38100000D01*
X51130000Y38100000D02*
X50180000Y38100000D01*
X50180000Y39020000D02*
X46340000Y39020000D01*
X46340000Y39020000D02*
X46340000Y37180000D01*
X50180000Y37180000D02*
X50180000Y39020000D01*
X19390000Y31160000D02*
X19390000Y33070000D01*
X17780000Y35520000D02*
X17780000Y35820000D01*
X15930000Y32070000D02*
X15930000Y33270000D01*
X19080000Y31470000D02*
X19080000Y35820000D01*
X18780000Y35520000D02*
X17780000Y35520000D01*
X15930000Y35520000D02*
X15930000Y35220000D01*
X15930000Y31770000D02*
X15930000Y32070000D01*
X19080000Y35820000D02*
X15480000Y35820000D01*
X15930000Y33270000D02*
X15630000Y33270000D01*
X15930000Y34020000D02*
X15930000Y35220000D01*
X15930000Y32070000D02*
X15480000Y32070000D01*
X15630000Y34020000D02*
X15930000Y34020000D01*
X17780000Y31770000D02*
X18780000Y31770000D01*
X17780000Y31470000D02*
X17780000Y31770000D01*
X15630000Y33270000D02*
X15630000Y34020000D01*
X17030000Y31770000D02*
X15930000Y31770000D01*
X17030000Y35520000D02*
X15930000Y35520000D01*
X15480000Y31470000D02*
X19080000Y31470000D01*
X15930000Y35220000D02*
X15480000Y35220000D01*
X17030000Y31470000D02*
X17030000Y31770000D01*
X15480000Y35820000D02*
X15480000Y31470000D01*
X17480000Y31160000D02*
X19390000Y31160000D01*
X18780000Y31770000D02*
X18780000Y35520000D01*
X17030000Y35820000D02*
X17030000Y35520000D01*
X34410000Y52130000D02*
X32760000Y52130000D01*
X29110000Y26610000D02*
X34410000Y26610000D01*
X29110000Y52130000D02*
X29110000Y26610000D01*
X34410000Y26610000D02*
X34410000Y52130000D01*
X30760000Y52130000D02*
X29110000Y52130000D01*
X30760000Y52130000D02*
G75*
G03*
X32760000Y52130000I1000000J0D01*
G01*
X59300000Y30750000D02*
X59000000Y30750000D01*
X59000000Y29550000D02*
X59450000Y29550000D01*
X59000000Y30750000D02*
X59000000Y29550000D01*
X59450000Y33300000D02*
X55850000Y33300000D01*
X57900000Y33300000D02*
X57900000Y33000000D01*
X59000000Y32700000D02*
X59000000Y31500000D01*
X59000000Y33000000D02*
X59000000Y32700000D01*
X57150000Y29250000D02*
X57150000Y28950000D01*
X57900000Y33000000D02*
X59000000Y33000000D01*
X59000000Y32700000D02*
X59450000Y32700000D01*
X56150000Y33000000D02*
X56150000Y29250000D01*
X55540000Y33610000D02*
X55540000Y31700000D01*
X59000000Y29250000D02*
X59000000Y29550000D01*
X57900000Y29250000D02*
X59000000Y29250000D01*
X55850000Y28950000D02*
X59450000Y28950000D01*
X55850000Y33300000D02*
X55850000Y28950000D01*
X56150000Y29250000D02*
X57150000Y29250000D01*
X59450000Y28950000D02*
X59450000Y33300000D01*
X57150000Y33000000D02*
X56150000Y33000000D01*
X57450000Y33610000D02*
X55540000Y33610000D01*
X59300000Y31500000D02*
X59300000Y30750000D01*
X57150000Y33300000D02*
X57150000Y33000000D01*
X59000000Y31500000D02*
X59300000Y31500000D01*
X57900000Y28950000D02*
X57900000Y29250000D01*
X6790000Y64770000D02*
X6790000Y64390000D01*
X6790000Y57150000D02*
X5020000Y57150000D01*
X6790000Y57150000D02*
X6790000Y57530000D01*
X5020000Y64770000D02*
X6790000Y64770000D01*
X2480000Y64770000D02*
X2740000Y64770000D01*
X2740000Y57150000D02*
X2480000Y57150000D01*
X15930000Y47260000D02*
X15630000Y47260000D01*
X17030000Y45760000D02*
X15930000Y45760000D01*
X17780000Y49510000D02*
X17780000Y49810000D01*
X15480000Y49810000D02*
X15480000Y45460000D01*
X19080000Y49810000D02*
X15480000Y49810000D01*
X15480000Y45460000D02*
X19080000Y45460000D01*
X15930000Y48010000D02*
X15930000Y49210000D01*
X18780000Y49510000D02*
X17780000Y49510000D01*
X15930000Y46060000D02*
X15930000Y47260000D01*
X15930000Y49510000D02*
X15930000Y49210000D01*
X19080000Y45460000D02*
X19080000Y49810000D01*
X17480000Y45150000D02*
X19390000Y45150000D01*
X17030000Y49810000D02*
X17030000Y49510000D01*
X15930000Y49210000D02*
X15480000Y49210000D01*
X17780000Y45460000D02*
X17780000Y45760000D01*
X15930000Y46060000D02*
X15480000Y46060000D01*
X17780000Y45760000D02*
X18780000Y45760000D01*
X15630000Y47260000D02*
X15630000Y48010000D01*
X15630000Y48010000D02*
X15930000Y48010000D01*
X15930000Y45760000D02*
X15930000Y46060000D01*
X18780000Y45760000D02*
X18780000Y49510000D01*
X17030000Y45460000D02*
X17030000Y45760000D01*
X17030000Y49510000D02*
X15930000Y49510000D01*
X19390000Y45150000D02*
X19390000Y47060000D01*
X55850000Y16250000D02*
X59450000Y16250000D01*
X57900000Y20300000D02*
X59000000Y20300000D01*
X59450000Y20600000D02*
X55850000Y20600000D01*
X59000000Y18050000D02*
X59000000Y16850000D01*
X55850000Y20600000D02*
X55850000Y16250000D01*
X56150000Y20300000D02*
X56150000Y16550000D01*
X59000000Y16550000D02*
X59000000Y16850000D01*
X59300000Y18050000D02*
X59000000Y18050000D01*
X57900000Y20600000D02*
X57900000Y20300000D01*
X59300000Y18800000D02*
X59300000Y18050000D01*
X57150000Y20600000D02*
X57150000Y20300000D01*
X59450000Y16250000D02*
X59450000Y20600000D01*
X57150000Y16550000D02*
X57150000Y16250000D01*
X57150000Y20300000D02*
X56150000Y20300000D01*
X56150000Y16550000D02*
X57150000Y16550000D01*
X55540000Y20910000D02*
X55540000Y19000000D01*
X59000000Y20300000D02*
X59000000Y20000000D01*
X57900000Y16250000D02*
X57900000Y16550000D01*
X59000000Y20000000D02*
X59000000Y18800000D01*
X57450000Y20910000D02*
X55540000Y20910000D01*
X59000000Y16850000D02*
X59450000Y16850000D01*
X57900000Y16550000D02*
X59000000Y16550000D01*
X59000000Y18800000D02*
X59300000Y18800000D01*
X59000000Y20000000D02*
X59450000Y20000000D01*
X59000000Y13650000D02*
X59450000Y13650000D01*
X59000000Y10500000D02*
X59450000Y10500000D01*
X59300000Y11700000D02*
X59000000Y11700000D01*
X59450000Y9900000D02*
X59450000Y14250000D01*
X59450000Y14250000D02*
X55850000Y14250000D01*
X57900000Y9900000D02*
X57900000Y10200000D01*
X59000000Y10200000D02*
X59000000Y10500000D01*
X55850000Y14250000D02*
X55850000Y9900000D01*
X57150000Y14250000D02*
X57150000Y13950000D01*
X57900000Y14250000D02*
X57900000Y13950000D01*
X55540000Y14560000D02*
X55540000Y12650000D01*
X59000000Y11700000D02*
X59000000Y10500000D01*
X55850000Y9900000D02*
X59450000Y9900000D01*
X57900000Y13950000D02*
X59000000Y13950000D01*
X59000000Y12450000D02*
X59300000Y12450000D01*
X56150000Y10200000D02*
X57150000Y10200000D01*
X57150000Y10200000D02*
X57150000Y9900000D01*
X57900000Y10200000D02*
X59000000Y10200000D01*
X59000000Y13650000D02*
X59000000Y12450000D01*
X57150000Y13950000D02*
X56150000Y13950000D01*
X57450000Y14560000D02*
X55540000Y14560000D01*
X56150000Y13950000D02*
X56150000Y10200000D01*
X59000000Y13950000D02*
X59000000Y13650000D01*
X59300000Y12450000D02*
X59300000Y11700000D01*
X59300000Y56150000D02*
X59000000Y56150000D01*
X59000000Y54950000D02*
X59450000Y54950000D01*
X56150000Y58400000D02*
X56150000Y54650000D01*
X57900000Y58400000D02*
X59000000Y58400000D01*
X57900000Y54650000D02*
X59000000Y54650000D01*
X55850000Y54350000D02*
X59450000Y54350000D01*
X59000000Y58100000D02*
X59000000Y56900000D01*
X57450000Y59010000D02*
X55540000Y59010000D01*
X59450000Y58700000D02*
X55850000Y58700000D01*
X57150000Y58700000D02*
X57150000Y58400000D01*
X57900000Y58700000D02*
X57900000Y58400000D01*
X57150000Y54650000D02*
X57150000Y54350000D01*
X57150000Y58400000D02*
X56150000Y58400000D01*
X59000000Y56900000D02*
X59300000Y56900000D01*
X59000000Y58400000D02*
X59000000Y58100000D01*
X59000000Y54650000D02*
X59000000Y54950000D01*
X59300000Y56900000D02*
X59300000Y56150000D01*
X57900000Y54350000D02*
X57900000Y54650000D01*
X59000000Y56150000D02*
X59000000Y54950000D01*
X59000000Y58100000D02*
X59450000Y58100000D01*
X59450000Y54350000D02*
X59450000Y58700000D01*
X56150000Y54650000D02*
X57150000Y54650000D01*
X55850000Y58700000D02*
X55850000Y54350000D01*
X55540000Y59010000D02*
X55540000Y57100000D01*
X59000000Y45400000D02*
X59450000Y45400000D01*
X55850000Y41650000D02*
X59450000Y41650000D01*
X57150000Y45700000D02*
X56150000Y45700000D01*
X59000000Y42250000D02*
X59450000Y42250000D01*
X56150000Y45700000D02*
X56150000Y41950000D01*
X57900000Y41950000D02*
X59000000Y41950000D01*
X57450000Y46310000D02*
X55540000Y46310000D01*
X55540000Y46310000D02*
X55540000Y44400000D01*
X57900000Y41650000D02*
X57900000Y41950000D01*
X56150000Y41950000D02*
X57150000Y41950000D01*
X57900000Y45700000D02*
X59000000Y45700000D01*
X57900000Y46000000D02*
X57900000Y45700000D01*
X59000000Y43450000D02*
X59000000Y42250000D01*
X59300000Y43450000D02*
X59000000Y43450000D01*
X57150000Y46000000D02*
X57150000Y45700000D01*
X59000000Y41950000D02*
X59000000Y42250000D01*
X57150000Y41950000D02*
X57150000Y41650000D01*
X59000000Y45700000D02*
X59000000Y45400000D01*
X59000000Y44200000D02*
X59300000Y44200000D01*
X59450000Y46000000D02*
X55850000Y46000000D01*
X59450000Y41650000D02*
X59450000Y46000000D01*
X55850000Y46000000D02*
X55850000Y41650000D01*
X59300000Y44200000D02*
X59300000Y43450000D01*
X59000000Y45400000D02*
X59000000Y44200000D01*
X57150000Y26650000D02*
X56150000Y26650000D01*
X59000000Y26350000D02*
X59000000Y25150000D01*
X59300000Y24400000D02*
X59000000Y24400000D01*
X57900000Y22600000D02*
X57900000Y22900000D01*
X56150000Y26650000D02*
X56150000Y22900000D01*
X57150000Y22900000D02*
X57150000Y22600000D01*
X57900000Y22900000D02*
X59000000Y22900000D01*
X59000000Y23200000D02*
X59450000Y23200000D01*
X57150000Y26950000D02*
X57150000Y26650000D01*
X57900000Y26950000D02*
X57900000Y26650000D01*
X59000000Y25150000D02*
X59300000Y25150000D01*
X55850000Y26950000D02*
X55850000Y22600000D01*
X57450000Y27260000D02*
X55540000Y27260000D01*
X59300000Y25150000D02*
X59300000Y24400000D01*
X56150000Y22900000D02*
X57150000Y22900000D01*
X55540000Y27260000D02*
X55540000Y25350000D01*
X55850000Y22600000D02*
X59450000Y22600000D01*
X59000000Y26350000D02*
X59450000Y26350000D01*
X59000000Y26650000D02*
X59000000Y26350000D01*
X59000000Y24400000D02*
X59000000Y23200000D01*
X59450000Y22600000D02*
X59450000Y26950000D01*
X59450000Y26950000D02*
X55850000Y26950000D01*
X59000000Y22900000D02*
X59000000Y23200000D01*
X57900000Y26650000D02*
X59000000Y26650000D01*
X59450000Y52350000D02*
X55850000Y52350000D01*
X57900000Y48000000D02*
X57900000Y48300000D01*
X57150000Y52350000D02*
X57150000Y52050000D01*
X59000000Y48300000D02*
X59000000Y48600000D01*
X55540000Y52660000D02*
X55540000Y50750000D01*
X59000000Y48600000D02*
X59450000Y48600000D01*
X59000000Y49800000D02*
X59000000Y48600000D01*
X59000000Y52050000D02*
X59000000Y51750000D01*
X59450000Y48000000D02*
X59450000Y52350000D01*
X57150000Y48300000D02*
X57150000Y48000000D01*
X59300000Y49800000D02*
X59000000Y49800000D01*
X59000000Y51750000D02*
X59450000Y51750000D01*
X56150000Y48300000D02*
X57150000Y48300000D01*
X59000000Y50550000D02*
X59300000Y50550000D01*
X57900000Y48300000D02*
X59000000Y48300000D01*
X57900000Y52050000D02*
X59000000Y52050000D01*
X59300000Y50550000D02*
X59300000Y49800000D01*
X55850000Y48000000D02*
X59450000Y48000000D01*
X55850000Y52350000D02*
X55850000Y48000000D01*
X57900000Y52350000D02*
X57900000Y52050000D01*
X57450000Y52660000D02*
X55540000Y52660000D01*
X59000000Y51750000D02*
X59000000Y50550000D01*
X57150000Y52050000D02*
X56150000Y52050000D01*
X56150000Y52050000D02*
X56150000Y48300000D01*
X17030000Y24150000D02*
X15930000Y24150000D01*
X17780000Y27900000D02*
X17780000Y28200000D01*
X17780000Y23850000D02*
X17780000Y24150000D01*
X17480000Y23540000D02*
X19390000Y23540000D01*
X19080000Y23850000D02*
X19080000Y28200000D01*
X15630000Y25650000D02*
X15630000Y26400000D01*
X17030000Y23850000D02*
X17030000Y24150000D01*
X19390000Y23540000D02*
X19390000Y25450000D01*
X15930000Y24150000D02*
X15930000Y24450000D01*
X15930000Y24450000D02*
X15480000Y24450000D01*
X15630000Y26400000D02*
X15930000Y26400000D01*
X17030000Y27900000D02*
X15930000Y27900000D01*
X18780000Y27900000D02*
X17780000Y27900000D01*
X15930000Y26400000D02*
X15930000Y27600000D01*
X17780000Y24150000D02*
X18780000Y24150000D01*
X15930000Y24450000D02*
X15930000Y25650000D01*
X15480000Y23850000D02*
X19080000Y23850000D01*
X17030000Y28200000D02*
X17030000Y27900000D01*
X18780000Y24150000D02*
X18780000Y27900000D01*
X15480000Y28200000D02*
X15480000Y23850000D01*
X15930000Y27900000D02*
X15930000Y27600000D01*
X15930000Y27600000D02*
X15480000Y27600000D01*
X19080000Y28200000D02*
X15480000Y28200000D01*
X15930000Y25650000D02*
X15630000Y25650000D01*
X50180000Y45370000D02*
X46340000Y45370000D01*
X46340000Y43530000D02*
X50180000Y43530000D01*
X46340000Y45370000D02*
X46340000Y43530000D01*
X51130000Y44450000D02*
X50180000Y44450000D01*
X50180000Y43530000D02*
X50180000Y45370000D01*
X45390000Y44450000D02*
X46340000Y44450000D01*
X46340000Y18130000D02*
X50180000Y18130000D01*
X45390000Y19050000D02*
X46340000Y19050000D01*
X51130000Y19050000D02*
X50180000Y19050000D01*
X50180000Y18130000D02*
X50180000Y19970000D01*
X50180000Y19970000D02*
X46340000Y19970000D01*
X46340000Y19970000D02*
X46340000Y18130000D01*
X51130000Y50800000D02*
X50180000Y50800000D01*
X45390000Y50800000D02*
X46340000Y50800000D01*
X50180000Y49880000D02*
X50180000Y51720000D01*
X46340000Y49880000D02*
X50180000Y49880000D01*
X46340000Y51720000D02*
X46340000Y49880000D01*
X50180000Y51720000D02*
X46340000Y51720000D01*
X51130000Y31750000D02*
X50180000Y31750000D01*
X50180000Y30830000D02*
X50180000Y32670000D01*
X46340000Y30830000D02*
X50180000Y30830000D01*
X46340000Y32670000D02*
X46340000Y30830000D01*
X50180000Y32670000D02*
X46340000Y32670000D01*
X45390000Y31750000D02*
X46340000Y31750000D01*
X50180000Y56230000D02*
X50180000Y58070000D01*
X51130000Y57150000D02*
X50180000Y57150000D01*
X50180000Y58070000D02*
X46340000Y58070000D01*
X46340000Y58070000D02*
X46340000Y56230000D01*
X45390000Y57150000D02*
X46340000Y57150000D01*
X46340000Y56230000D02*
X50180000Y56230000D01*
X32379000Y58070000D02*
X31121000Y58070000D01*
X32379000Y56230000D02*
X31121000Y56230000D01*
X50180000Y26320000D02*
X46340000Y26320000D01*
X50180000Y24480000D02*
X50180000Y26320000D01*
X45390000Y25400000D02*
X46340000Y25400000D01*
X46340000Y26320000D02*
X46340000Y24480000D01*
X51130000Y25400000D02*
X50180000Y25400000D01*
X46340000Y24480000D02*
X50180000Y24480000D01*
X15930000Y41640000D02*
X15930000Y42840000D01*
X15930000Y43140000D02*
X15930000Y42840000D01*
X18780000Y39390000D02*
X18780000Y43140000D01*
X15630000Y40890000D02*
X15630000Y41640000D01*
X18780000Y43140000D02*
X17780000Y43140000D01*
X15930000Y42840000D02*
X15480000Y42840000D01*
X17780000Y43140000D02*
X17780000Y43440000D01*
X17030000Y39090000D02*
X17030000Y39390000D01*
X15930000Y40890000D02*
X15630000Y40890000D01*
X15930000Y39690000D02*
X15480000Y39690000D01*
X17780000Y39090000D02*
X17780000Y39390000D01*
X19080000Y39090000D02*
X19080000Y43440000D01*
X19390000Y38780000D02*
X19390000Y40690000D01*
X17030000Y43140000D02*
X15930000Y43140000D01*
X15630000Y41640000D02*
X15930000Y41640000D01*
X17030000Y39390000D02*
X15930000Y39390000D01*
X15480000Y39090000D02*
X19080000Y39090000D01*
X19080000Y43440000D02*
X15480000Y43440000D01*
X15930000Y39390000D02*
X15930000Y39690000D01*
X15930000Y39690000D02*
X15930000Y40890000D01*
X17030000Y43440000D02*
X17030000Y43140000D01*
X17480000Y38780000D02*
X19390000Y38780000D01*
X17780000Y39390000D02*
X18780000Y39390000D01*
X15480000Y43440000D02*
X15480000Y39090000D01*
M02*
